<svg width="110" height="20" viewBox="0 0 110 20" fill="none" xmlns="http://www.w3.org/2000/svg">
<g clip-path="url(#clip0_121_1114)">
<path d="M33.2533 12.3033C33.2533 13.7556 31.9011 14.8073 29.9981 14.8073H25.541V5.79297H29.8478C31.7008 5.79297 33.0029 6.79457 33.0029 8.19679C33.0029 9.14829 32.5021 9.74926 31.7509 10.0998C32.5522 10.4003 33.2533 11.2015 33.2533 12.3033ZM27.4941 7.4456V9.3987H29.7978C30.4989 9.3987 30.9496 8.99807 30.9496 8.4472C30.9496 7.89632 30.4488 7.4456 29.7978 7.4456H27.4941ZM29.9981 13.1547C30.7493 13.1547 31.3002 12.704 31.3002 12.0529C31.3002 11.4019 30.7994 10.9512 29.9981 10.9512H27.4941V13.1547H29.9981Z" fill="#A2A2A2"/>
<path d="M40.6147 14.7572L37.5099 11.2016H37.0091V14.7572H35.0059V5.79297H37.0091V9.24844H37.5099L40.5146 5.79297H42.8685L39.1124 10.0998L43.2188 14.7572H40.6147Z" fill="#A2A2A2"/>
<path d="M43.2188 10.3C43.2188 7.59568 45.2223 5.64258 48.0265 5.64258C50.8311 5.64258 52.8342 7.59568 52.8342 10.3C52.8342 13.0043 50.8311 14.9574 48.0265 14.9574C45.2223 14.9574 43.2188 13.0043 43.2188 10.3ZM50.731 10.3C50.731 8.59727 49.629 7.44546 48.0265 7.44546C46.4239 7.44546 45.3223 8.59727 45.3223 10.3C45.3223 12.0027 46.4239 13.1545 48.0265 13.1545C49.629 13.1545 50.731 12.0027 50.731 10.3Z" fill="#A2A2A2"/>
<path d="M60.4957 5.79297H62.4992V14.7572H60.4957V11.1515H56.4894V14.7572H54.4863V5.79297H56.4894V9.3486H60.4957V5.79297Z" fill="#A2A2A2"/>
<path d="M66.8063 14.7572V7.59581H63.7012V5.79297H71.8643V7.59581H68.7592V14.7572H66.8063Z" fill="#A2A2A2"/>
<path d="M80.4784 9.74913V14.7571H79.0261L78.6255 13.3549C78.1748 14.106 77.2234 14.9574 75.7711 14.9574C73.9681 14.9574 72.666 13.7555 72.666 12.1028C72.666 10.4502 73.9681 9.2984 76.6224 9.2984H78.5753C78.4753 8.14655 77.8743 7.34531 76.7727 7.34531C75.8712 7.34531 75.2701 7.84609 74.9696 8.39696L73.167 8.09649C73.6178 6.54402 75.1701 5.64258 76.8727 5.64258C79.0763 5.64258 80.4784 7.14495 80.4784 9.74913ZM78.5255 10.8509H76.6726C75.1701 10.8509 74.6691 11.3517 74.6691 12.0027C74.6691 12.7539 75.2701 13.2547 76.2717 13.2547C77.5738 13.2547 78.5255 12.3032 78.5255 10.8509Z" fill="#A2A2A2"/>
<path d="M88.1899 14.7572L85.0852 11.2016H84.5842V14.7572H82.5811V5.79297H84.5842V9.24844H85.0852L88.0898 5.79297H90.4437L86.6877 10.0998L90.794 14.7572H88.1899Z" fill="#A2A2A2"/>
<path d="M94.4006 14.7572V7.59581H91.2959V5.79297H99.459V7.59581H96.3539V14.7572H94.4006Z" fill="#A2A2A2"/>
<path d="M109.474 10.8509H102.262C102.463 12.2531 103.464 13.1545 104.966 13.1545C106.018 13.1545 106.82 12.7038 107.271 12.0528L109.123 12.3533C108.472 14.056 106.719 14.9574 104.816 14.9574C102.112 14.9574 100.159 13.0043 100.159 10.3C100.159 7.59568 102.112 5.64258 104.816 5.64258C107.521 5.64258 109.474 7.59568 109.474 10.1998C109.524 10.4502 109.474 10.6506 109.474 10.8509ZM102.413 9.2984H107.371C107.02 8.19665 106.118 7.39536 104.866 7.39536C103.664 7.34531 102.713 8.14655 102.413 9.2984Z" fill="#A2A2A2"/>
<path d="M0 9.61718C0 5.28844 0 3.12409 1.34476 1.77933C2.68952 0.43457 4.85387 0.43457 9.18261 0.43457H9.94783C14.2766 0.43457 16.4409 0.43457 17.7857 1.77933C19.1304 3.12409 19.1304 5.28844 19.1304 9.61718V10.3824C19.1304 14.7111 19.1304 16.8755 17.7857 18.2203C16.4409 19.565 14.2766 19.565 9.94783 19.565H9.18261C4.85387 19.565 2.68952 19.565 1.34476 18.2203C0 16.8755 0 14.7111 0 10.3824V9.61718Z" fill="#0077FF"/>
<path d="M10.1792 14.216C5.81906 14.216 3.33214 11.2268 3.22852 6.25293H5.41257C5.48431 9.90365 7.09442 11.45 8.36978 11.7689V6.25293H10.4264V9.40148C11.6858 9.26597 13.0088 7.83119 13.4552 6.25293H15.5118C15.169 8.19786 13.7342 9.63264 12.7139 10.2225C13.7342 10.7008 15.3684 11.9522 15.9901 14.216H13.7263C13.24 12.7015 12.0286 11.5297 10.4264 11.3703V14.216H10.1792Z" fill="white"/>
</g>
<defs>
<clipPath id="clip0_121_1114">
<rect width="110" height="19.1304" fill="white" transform="translate(0 0.43457)"/>
</clipPath>
</defs>
</svg>
