<svg width="91" height="28" viewBox="0 0 91 28" fill="none" xmlns="http://www.w3.org/2000/svg">
<g clip-path="url(#clip0_121_1091)">
<path d="M37.1696 27.7699H33.8896V20.8399H35.2496C35.7096 20.0699 36.0496 18.9599 36.2596 17.5099C36.4696 16.0399 36.6196 14.1099 36.6896 11.7099L36.9796 3.41992H48.8096V20.8399H50.6896V27.7699H47.4096V23.5699H37.1496V27.7699H37.1696ZM40.0196 12.1699C39.9396 14.5699 39.7896 16.4399 39.5596 17.7899C39.3496 19.1199 39.0996 20.1399 38.8096 20.8299H45.3296V6.13992H40.2296L40.0296 12.1699H40.0196Z" fill="#A2A2A2"/>
<path d="M56.89 21.1302C57.7 21.1302 58.31 20.9702 58.72 20.6402C59.15 20.2902 59.36 19.8302 59.36 19.2502C59.36 18.5902 59.17 18.1302 58.78 17.8602C58.41 17.5702 57.78 17.4302 56.9 17.4302H54.87V14.8802H56.9C58.31 14.8802 59.02 14.2902 59.02 13.1102C59.02 12.5702 58.83 12.1502 58.44 11.8602C58.07 11.5702 57.57 11.4302 56.93 11.4302C55.98 11.4302 55.18 11.5702 54.52 11.8602C53.86 12.1302 53.3 12.4202 52.84 12.7302V9.92019C53.27 9.65019 53.85 9.3802 54.61 9.1102C55.36 8.8402 56.3 8.7002 57.42 8.7002C58.99 8.7002 60.22 9.0302 61.13 9.6902C62.04 10.3502 62.49 11.2902 62.49 12.5302C62.49 13.3402 62.29 14.0602 61.88 14.6702C61.47 15.2702 60.83 15.7102 59.94 16.0002C60.91 16.2102 61.64 16.6002 62.14 17.1602C62.66 17.7202 62.92 18.4302 62.92 19.2802C62.92 20.7502 62.44 21.8802 61.47 22.6702C60.52 23.4602 59.13 23.8602 57.3 23.8602C56.06 23.8602 55.03 23.7202 54.2 23.4502C53.37 23.1602 52.79 22.8802 52.46 22.6102V19.8002C52.92 20.1502 53.55 20.4602 54.34 20.7302C55.15 21.0002 56 21.1402 56.89 21.1402V21.1302Z" fill="#A2A2A2"/>
<path d="M76.1394 22.5802C75.6394 22.9302 74.9794 23.2302 74.1694 23.4802C73.3594 23.7302 72.3994 23.8602 71.2994 23.8602C69.0994 23.8602 67.3994 23.2402 66.1994 22.0002C64.9994 20.7402 64.3994 18.8502 64.3994 16.3202C64.3994 14.8502 64.6194 13.5502 65.0694 12.4102C65.5294 11.2502 66.2194 10.3402 67.1294 9.6902C68.0594 9.0302 69.2194 8.7002 70.6094 8.7002C71.7694 8.7002 72.7694 8.9302 73.6194 9.4002C74.4694 9.8602 75.1294 10.6102 75.5894 11.6302C76.0494 12.6302 76.2894 13.9902 76.2894 15.6902V17.5202H67.9694C68.0494 18.7402 68.3594 19.6502 68.8994 20.2402C69.4394 20.8402 70.3394 21.1402 71.5994 21.1402C72.4494 21.1402 73.2794 21.0002 74.0894 20.7302C74.9194 20.4602 75.6094 20.1402 76.1494 19.7702V22.5802H76.1394ZM70.5494 11.4202C68.9294 11.4202 68.0694 12.6002 67.9694 14.9602H72.7794V14.6702C72.7794 13.7602 72.6194 13.0002 72.2894 12.3802C71.9794 11.7402 71.3994 11.4202 70.5494 11.4202Z" fill="#A2A2A2"/>
<path d="M86.6596 8.97998H90.1096V23.56H86.6596V17.47H82.0496V23.56H78.5996V8.97998H82.0496V14.75H86.6596V8.97998Z" fill="#A2A2A2"/>
<path d="M11.4396 10.78C13.4896 8.73998 13.8596 5.67998 13.9296 0.22998C6.81965 0.43998 1.10965 6.15998 0.889648 13.27C6.32965 13.2 9.39965 12.83 11.4396 10.79V10.78Z" fill="#A2A2A2"/>
<path d="M0.889648 13.27C0.889648 13.4 0.889648 13.54 0.889648 13.67C0.889648 13.8 0.889648 13.94 0.889648 14.07C6.32965 14.14 9.39965 14.51 11.4396 16.55C13.4796 18.59 13.8596 21.65 13.9196 27.1C14.0496 27.1 14.1896 27.1 14.3196 27.1C14.4496 27.1 14.5896 27.1 14.7196 27.1C14.7896 21.66 15.1596 18.59 17.1996 16.55C19.2396 14.51 22.2996 14.13 27.7496 14.07C27.7496 13.94 27.7496 13.8 27.7496 13.67C27.7496 13.54 27.7496 13.4 27.7496 13.27C22.3096 13.2 19.2396 12.83 17.1996 10.79C15.1696 8.73998 14.7996 5.67998 14.7296 0.22998C14.5996 0.22998 14.4596 0.22998 14.3296 0.22998C14.1996 0.22998 14.0596 0.22998 13.9296 0.22998C13.8596 5.66998 13.4896 8.73998 11.4496 10.78C9.40965 12.82 6.33965 13.2 0.889648 13.27Z" fill="white"/>
<path d="M14.7295 0.22998C14.7995 5.66998 15.1695 8.73998 17.2095 10.78C19.2495 12.82 22.3095 13.2 27.7595 13.26C27.5595 6.15998 21.8395 0.43998 14.7295 0.22998Z" fill="#A2A2A2"/>
<path d="M0.889648 14.0698C1.09965 21.1698 6.81965 26.8898 13.9196 27.0998C13.8496 21.6598 13.4796 18.5898 11.4396 16.5498C9.39965 14.5098 6.33965 14.1398 0.889648 14.0698Z" fill="#A2A2A2"/>
<path d="M17.2193 16.5601C15.1793 18.6001 14.7993 21.6601 14.7393 27.1101C21.8393 26.9001 27.5593 21.1801 27.7693 14.0801C22.3293 14.1501 19.2593 14.5201 17.2193 16.5601Z" fill="#A2A2A2"/>
</g>
<defs>
<clipPath id="clip0_121_1091">
<rect width="89.22" height="27.54" fill="white" transform="translate(0.889648 0.22998)"/>
</clipPath>
</defs>
</svg>
